PathFileType	4	(X/Y/Z)	C:/Users/opensim2020/Desktop/walking_exp_matlab/subject03_walking09_straight_02.trc	
DataRate	CameraRate	NumFrames	NumMarkers	Units	OrigDataRate	OrigDataStartFrame	OrigNumFrames	
100.00	100.00	9	47	mm	100.00	2018	364	
Frame#	Time	LFHD			RFHD			LBHD			RBHD			C7			T10			CLAV			STRN			RBAK			LSHO			LUPA			LELB			LFRM			LWRA			LWRB			LFIN			RSHO			RUPA			RELB			RFRM			RWRA			RWRB			RFIN			LASI			RASI			LPSI			RPSI			LTHI			LKNE			LTIB			LANK			LHEE			LTOE			RTHI			RKNE			RTIB			RANK			RHEE			RTOE			*39			*40			*41			*42			*43			*44			*45			*46			
		X1	Y1	Z1	X2	Y2	Z2	X3	Y3	Z3	X4	Y4	Z4	X5	Y5	Z5	X6	Y6	Z6	X7	Y7	Z7	X8	Y8	Z8	X9	Y9	Z9	X10	Y10	Z10	X11	Y11	Z11	X12	Y12	Z12	X13	Y13	Z13	X14	Y14	Z14	X15	Y15	Z15	X16	Y16	Z16	X17	Y17	Z17	X18	Y18	Z18	X19	Y19	Z19	X20	Y20	Z20	X21	Y21	Z21	X22	Y22	Z22	X23	Y23	Z23	X24	Y24	Z24	X25	Y25	Z25	X26	Y26	Z26	X27	Y27	Z27	X28	Y28	Z28	X29	Y29	Z29	X30	Y30	Z30	X31	Y31	Z31	X32	Y32	Z32	X33	Y33	Z33	X34	Y34	Z34	X35	Y35	Z35	X36	Y36	Z36	X37	Y37	Z37	X38	Y38	Z38	X39	Y39	Z39	X40	Y40	Z40	X41	Y41	Z41	X42	Y42	Z42	X43	Y43	Z43	X44	Y44	Z44	X45	Y45	Z45	X46	Y46	Z46	X47	Y47	Z47	

183	1.820	1497.64612	228.76985	1612.05957	1365.41760	243.70786	1614.78003	1506.07263	352.07578	1556.70874	1375.57336	361.64777	1559.66479	1439.49292	381.37598	1408.20215	1436.26306	431.25003	1097.71130	1440.67566	262.85956	1325.04333	1441.72729	231.12833	1157.49597	1336.40771	441.90353	1241.37866	1596.86926	310.92010	1361.32495	1662.33984	349.01859	1164.73132	1671.99109	357.77063	1041.08435	1666.56665	335.85971	913.01312	1630.92676	315.88654	797.96442	1679.36511	343.93167	799.42639	1666.25769	327.65683	717.64404	1280.95593	298.90173	1351.96350	1208.10059	272.53543	1131.92249	1196.88342	238.10072	1024.56079	1199.31250	194.85844	894.80841	1240.10400	149.39577	808.80304	1194.24072	174.98903	796.50897	1207.28882	138.26328	733.12708	1549.26843	260.72964	930.30847	1310.50757	273.34537	928.27393	1509.35425	426.32742	947.99249	1359.59302	430.60678	961.70905	1598.82947	250.90071	630.38202	1549.85083	187.62291	467.62500	1552.60583	174.13084	278.22113	1520.00635	116.04801	75.14450	1477.78040	142.28168	31.31139	1503.11646	-37.20366	74.55673	1281.62463	366.36047	639.50586	1318.99597	385.27869	460.77847	1322.47437	476.07126	289.18872	1377.06750	556.81921	88.54060	1429.65845	604.55249	65.21988	1386.84229	422.05896	35.31281																								 
184	1.830	1498.50818	221.02977	1611.67700	1366.31360	235.94505	1614.52161	1507.15540	344.28842	1556.20398	1376.26526	353.83841	1559.18860	1440.52014	373.37363	1407.81860	1437.51355	423.04782	1097.28052	1441.30432	254.71133	1324.63281	1442.14893	223.05713	1157.01868	1337.56604	434.08939	1240.95728	1597.65576	302.48428	1360.84656	1662.73877	340.78183	1164.16968	1671.75330	349.70590	1040.48584	1666.29761	328.51001	912.31628	1630.46643	308.95242	797.21484	1678.84839	337.08563	798.69946	1665.53455	321.29941	716.85352	1281.62036	291.19479	1351.56421	1209.33472	265.16840	1131.34668	1198.31421	230.93474	1023.86206	1200.95459	187.92422	894.00122	1241.89111	142.49411	807.99805	1196.00952	168.21344	795.65759	1209.25647	131.61731	732.08228	1549.59009	251.97435	929.64667	1310.80920	265.74878	927.77057	1510.51501	417.59500	947.63123	1360.78674	422.91760	961.47437	1598.54224	243.40532	629.55078	1549.68530	181.00287	466.47159	1552.94067	167.88326	277.16577	1520.85107	110.76997	74.19044	1478.62280	137.16568	30.34504	1502.15662	-42.72479	73.03426	1281.33374	360.41006	639.49054	1318.90564	379.96109	460.72195	1322.42163	472.75424	290.01361	1376.86780	555.85193	90.32880	1429.57910	603.75433	67.51990	1386.68481	421.85092	35.22985																								 
185	1.840	1499.45447	213.19897	1611.40881	1367.19287	228.13052	1614.33948	1507.98145	336.43332	1555.71729	1377.06360	345.91534	1558.79028	1441.63928	365.08072	1407.39807	1438.76941	414.62540	1096.83997	1441.97339	246.47479	1324.28967	1442.67249	214.64960	1156.67261	1338.81360	425.95001	1240.44153	1598.49988	293.80569	1360.50171	1663.07886	332.36188	1163.66638	1671.79053	341.57858	1039.95276	1666.06323	320.92746	911.68823	1630.06543	301.59482	796.86401	1678.49756	330.04715	798.14642	1664.89929	314.67093	716.18787	1282.45044	283.40289	1351.20215	1210.55579	257.81573	1130.81750	1199.74487	223.89726	1023.20361	1202.58752	181.11250	893.29474	1243.84766	136.17319	807.22809	1197.76563	161.63945	794.86743	1211.16821	125.13160	731.18549	1549.90369	243.09938	929.02869	1311.17798	258.00543	927.35852	1511.76343	408.89371	947.64447	1362.06360	414.70840	961.11359	1598.35559	235.64622	628.91486	1549.64063	174.41208	465.41400	1553.31836	162.37837	276.03723	1521.16260	106.88712	72.66277	1479.62952	134.28020	30.20201	1500.90454	-46.64734	70.20055	1281.64392	354.15488	639.42603	1318.79492	374.33914	460.58945	1322.36353	469.24948	290.87378	1376.64453	554.90460	92.16385	1429.33264	603.14642	70.16105	1386.53894	421.63876	35.19515																								 
186	1.850	1500.30127	205.43362	1611.20801	1368.07751	220.35956	1614.20349	1508.92102	328.51535	1555.32813	1378.27991	337.98926	1558.55579	1442.70154	356.86395	1407.02844	1440.03430	406.04120	1096.43945	1442.71045	238.05930	1324.09790	1443.20972	206.06699	1156.49695	1340.13806	417.92551	1240.08789	1599.39124	285.10538	1360.17029	1663.64294	323.75162	1163.26135	1672.14624	333.54364	1039.51575	1665.90723	313.16711	911.13324	1629.75085	294.56491	796.14612	1678.11389	322.63760	797.59729	1664.27515	307.90411	715.53821	1283.29260	275.65659	1350.94800	1211.81287	250.49039	1130.43164	1201.10364	216.95094	1022.64648	1204.10144	174.47662	892.60095	1245.32446	129.10651	806.54987	1199.52173	155.14435	794.14575	1212.98352	118.91234	730.28766	1550.31726	234.00986	928.53741	1311.60693	250.03651	926.93762	1513.02136	399.91562	947.67804	1363.26440	406.64203	960.98413	1598.26086	227.55873	628.46021	1549.87781	167.55698	464.50174	1553.54065	157.59229	274.80838	1520.48535	103.98143	70.64105	1479.36646	133.56976	29.70095	1499.61792	-48.67422	64.59732	1282.08875	347.56467	639.27948	1318.71033	368.50500	460.50104	1322.19604	465.55328	291.81516	1376.38025	553.86267	94.32724	1429.16467	602.10846	72.83275	1386.35645	421.36859	35.12909																								 
187	1.860	1501.19617	197.49097	1611.24011	1368.96655	212.48233	1614.27185	1509.55310	320.44595	1554.99719	1379.15027	330.05661	1558.36755	1443.89624	348.64941	1406.82935	1441.40430	397.25214	1096.13257	1443.50879	229.64011	1324.04248	1443.73022	197.44783	1156.49695	1341.58728	409.85651	1239.85364	1600.33423	276.26279	1360.03955	1664.26135	315.01538	1162.91052	1672.45605	325.02457	1039.11865	1665.86060	305.13678	910.64325	1629.48694	287.15302	795.70361	1677.87769	315.12122	797.15680	1663.76953	300.87888	715.05298	1284.19995	267.79074	1350.75366	1212.99170	243.24281	1130.09131	1202.39087	210.14287	1022.15198	1205.61023	167.91159	892.00043	1246.85120	122.53996	805.96887	1201.21509	148.84319	793.47296	1214.76599	113.11430	729.53394	1550.74683	224.88383	928.28253	1312.03076	241.90829	926.50806	1514.37122	390.89737	947.99396	1364.52417	398.28244	960.83771	1598.24524	219.22314	628.40778	1549.97839	161.15950	463.68015	1553.03284	153.49712	273.79721	1519.48889	102.32341	69.45527	1478.30029	133.25279	30.03593	1498.51257	-50.13709	56.29372	1282.32727	341.02469	639.14856	1318.69312	362.36966	460.35229	1322.19141	461.65561	292.79807	1375.92786	552.62000	96.48692	1428.85754	601.12695	75.83040	1386.19238	421.09918	35.11601																								 
188	1.870	1502.09460	189.59195	1611.54895	1369.83093	204.72488	1614.61951	1510.75842	312.48114	1555.01587	1380.08337	322.13217	1558.35803	1445.33142	340.58655	1407.19568	1442.81677	388.38763	1096.07581	1444.36304	221.15277	1324.30591	1444.30103	188.94817	1156.76599	1343.27795	401.81726	1239.88037	1601.37073	267.31192	1359.98914	1664.99487	306.02048	1162.69116	1672.81396	316.24982	1038.80762	1665.92188	296.84543	910.30200	1629.39087	279.44171	795.41119	1677.72510	307.30515	796.83154	1663.33337	293.63635	714.64014	1285.12231	259.98807	1350.77014	1214.18530	235.97287	1129.87061	1203.64771	203.36215	1021.74481	1207.05164	161.45338	891.50629	1248.35706	116.23367	805.44244	1202.83813	142.72551	792.85809	1216.68457	106.86340	728.92773	1551.23206	215.51555	928.38092	1312.47424	233.59285	926.18054	1515.69885	381.72885	948.60699	1365.72681	389.76752	960.76691	1598.18420	210.83224	629.11322	1550.10107	155.16687	463.46048	1552.57971	149.38655	273.42221	1519.96289	100.12277	68.87513	1478.46509	132.91141	31.01298	1496.88770	-51.63247	48.86854	1283.13428	333.65848	639.05713	1318.77820	355.88504	460.28937	1322.06604	457.45325	293.97855	1375.53809	551.19818	99.02713	1428.38171	599.96088	79.18269	1386.01941	420.73798	35.15085																								 
189	1.880	1502.97131	181.63962	1612.15759	1370.73083	196.86276	1615.23694	1511.69653	304.32184	1555.24866	1380.78284	314.11664	1558.47473	1446.53333	332.21271	1407.44421	1443.97388	379.57440	1096.31482	1445.20911	212.64461	1324.83093	1444.92810	180.09859	1157.32153	1344.96826	393.72043	1239.99829	1602.51917	258.31668	1360.12256	1665.79211	296.79016	1162.63159	1673.17371	306.91385	1038.74207	1666.03198	288.37402	910.04694	1629.35217	271.52887	795.34906	1677.50720	299.33401	796.46667	1662.94080	286.11575	714.37964	1286.05847	252.16237	1351.03064	1215.36633	228.73553	1129.88525	1204.88733	196.57512	1021.56812	1208.42822	155.15945	891.13269	1249.65234	109.49792	805.20648	1204.47913	136.73935	792.44116	1218.29224	101.04530	728.27539	1551.63306	206.34755	928.77905	1313.01184	225.14307	926.00867	1516.93628	372.48694	949.55182	1366.84521	380.90613	960.89197	1598.23254	202.44931	630.22272	1550.41089	149.33176	463.64438	1553.10767	144.82915	273.48746	1519.73987	97.65411	68.69159	1479.14734	131.40005	32.03076	1495.29236	-53.85670	44.08686	1283.43872	326.44687	638.99091	1318.85327	348.96371	460.36594	1322.11719	452.77048	295.33926	1375.14429	549.47473	101.78312	1428.08582	598.66309	83.00046	1385.90479	420.33401	35.16967																								 
190	1.890	1503.83020	173.65109	1612.97034	1371.63000	188.99637	1615.96631	1512.73425	296.09583	1555.80310	1381.83545	306.06076	1558.91357	1447.95349	323.52075	1407.93457	1444.87866	370.73511	1096.72644	1446.08264	204.15010	1325.52051	1445.61670	171.26968	1158.09033	1346.58459	385.46231	1240.26379	1603.63086	249.16460	1360.45923	1666.67029	287.43704	1162.82642	1673.99475	297.85510	1038.86536	1666.20093	279.64157	910.05286	1629.45007	263.36478	795.50275	1677.65405	291.12576	796.57245	1662.71313	278.35736	714.39911	1287.00769	244.23611	1351.49426	1216.55334	221.49567	1130.12573	1206.11340	189.89330	1021.60480	1209.89600	148.87251	890.99695	1251.02209	103.65913	804.97479	1205.98462	130.97556	792.22644	1219.81580	95.55286	727.94672	1552.09277	197.05870	929.57855	1313.60205	216.56480	925.93872	1517.86523	363.24872	950.81335	1367.74500	371.96274	961.29517	1598.35046	194.12808	631.56537	1550.78369	143.56128	463.92572	1553.77673	140.17676	273.46396	1520.28455	94.51225	68.90561	1479.81506	129.63451	33.20211	1495.04260	-57.16726	42.30271	1284.03491	318.49805	639.16772	1318.89331	341.40186	460.43033	1322.02966	447.88959	296.90210	1374.83142	547.68756	104.92930	1427.84583	596.98492	87.02126	1385.78796	419.94302	35.19001																								 
191	1.900	1504.69666	165.55937	1613.90735	1372.51758	181.08925	1616.85132	1513.81201	287.92862	1556.43860	1383.13452	298.06345	1559.71436	1449.25037	315.03079	1408.62427	1445.84521	361.97345	1097.34326	1446.98254	195.62868	1326.38379	1446.30139	162.38022	1159.06055	1348.23645	377.21640	1240.82141	1604.73230	239.94675	1361.10144	1667.54675	277.81320	1163.24243	1674.42529	287.97217	1039.15271	1666.47424	270.58728	910.26343	1629.74683	254.90108	795.94440	1677.90845	282.36954	796.88776	1662.59131	270.32162	714.60962	1287.99988	236.23083	1352.22388	1217.78040	214.34216	1130.69238	1207.40979	183.20378	1021.93866	1211.20325	142.86005	891.13922	1252.47058	98.30368	804.71564	1207.41992	125.39072	792.26074	1221.27454	90.21301	727.99402	1552.61560	187.62764	930.82068	1314.28430	207.91515	925.96625	1518.74573	354.08240	952.30957	1368.51111	363.14926	961.91229	1597.63989	186.39233	632.86469	1551.15601	137.81598	464.35181	1554.44470	135.40115	273.70105	1520.20215	92.39990	68.36076	1480.01843	128.42226	34.04771	1496.04797	-59.88109	40.97961	1284.47546	310.23645	639.36401	1318.88037	333.45010	460.64401	1321.97058	442.56952	298.67725	1374.61792	545.33484	108.25440	1427.62012	594.79559	91.46888	1385.58850	419.66971	35.01017																								 
